<?xml version="1.0" standalone="no"?>
<!DOCTYPE svg PUBLIC "-//W3C//DTD SVG 20010904//EN"
 "http://www.w3.org/TR/2001/REC-SVG-20010904/DTD/svg10.dtd">
<svg version="1.0" xmlns="http://www.w3.org/2000/svg"
 width="2000.000000pt" height="1247.000000pt" viewBox="0 0 2000.000000 1247.000000"
 preserveAspectRatio="xMidYMid meet">

<g transform="translate(0.000000,1247.000000) scale(0.100000,-0.100000)"
fill="#EF233C" stroke="none">
<path d="M9308 12022 c-508 -294 -684 -400 -674 -407 7 -5 812 -471 1789
-1035 l1777 -1025 0 -947 0 -948 690 0 690 0 0 1349 0 1348 -1782 1029 c-980
566 -1786 1030 -1792 1031 -6 1 -320 -176 -698 -395z"/>
<path d="M6443 10358 l-1783 -1030 0 -800 0 -799 23 12 c12 7 816 471 1786
1031 970 560 1767 1018 1771 1018 4 0 802 -459 1773 -1019 970 -560 1774
-1024 1786 -1030 l21 -12 0 800 0 799 -1786 1031 c-982 567 -1791 1031 -1797
1030 -7 0 -814 -464 -1794 -1031z"/>
<path d="M13960 8879 l0 -1219 690 0 690 0 -2 822 -3 822 -90 52 c-49 28 -359
207 -687 397 l-598 345 0 -1219z"/>
<path d="M6770 8512 l-1464 -847 1378 -3 c994 -1 1383 1 1399 9 62 31 1537
885 1536 889 0 5 -1364 793 -1378 797 -3 0 -665 -380 -1471 -845z"/>
<path d="M13810 7193 c-391 -61 -689 -324 -792 -698 -19 -69 -22 -105 -22
-260 0 -206 14 -277 83 -422 158 -330 452 -523 822 -540 406 -19 733 157 898
484 17 34 31 65 31 68 0 3 -83 5 -184 5 l-183 0 -37 -59 c-65 -106 -174 -183
-309 -218 -83 -21 -251 -21 -336 2 -220 57 -390 232 -453 462 -16 62 -21 107
-21 218 0 111 5 156 21 218 65 238 241 412 468 463 103 22 283 15 368 -15 116
-41 215 -120 272 -216 l26 -45 184 0 184 0 -15 38 c-60 144 -202 305 -340 385
-98 58 -221 103 -332 122 -77 14 -270 18 -333 8z"/>
<path d="M2020 6230 l0 -950 150 0 150 0 0 415 0 415 315 0 315 0 0 125 0 125
-312 2 -313 3 -3 283 -2 282 405 0 405 0 0 125 0 125 -555 0 -555 0 0 -950z"/>
<path d="M3420 6231 l0 -951 155 0 155 0 0 380 0 381 122 -3 122 -3 216 -375
216 -375 182 -3 c100 -1 182 0 182 2 0 3 -104 179 -231 391 -127 213 -228 389
-225 392 3 3 35 16 71 28 169 59 294 196 340 372 19 72 19 222 0 292 -37 141
-148 277 -277 339 -145 71 -178 75 -625 80 l-403 4 0 -951z m755 688 c155 -28
239 -121 252 -278 13 -158 -66 -288 -202 -330 -59 -19 -92 -21 -281 -21 l-214
0 0 320 0 320 193 0 c106 0 220 -5 252 -11z"/>
<path d="M5150 6230 l0 -950 520 0 520 0 0 125 0 125 -367 2 -368 3 -3 293 -2
292 330 0 330 0 0 125 0 125 -330 0 -330 0 0 280 0 280 370 0 370 0 0 125 0
125 -520 0 -520 0 0 -950z"/>
<path d="M6580 6230 l0 -950 520 0 520 0 0 125 0 125 -367 2 -368 3 -3 293 -2
292 330 0 330 0 0 125 0 125 -330 0 -330 0 0 280 0 280 370 0 370 0 0 125 0
125 -520 0 -520 0 0 -950z"/>
<path d="M8010 6230 l0 -950 473 2 472 3 3 122 3 123 -323 2 -323 3 -3 823 -2
822 -150 0 -150 0 0 -950z"/>
<path d="M9786 7172 c-5 -8 -676 -1882 -676 -1888 0 -2 71 -4 159 -4 l159 0
68 195 69 195 400 0 400 0 39 -113 c21 -61 52 -149 68 -194 l30 -83 160 0
c130 0 159 3 156 14 -2 7 -154 435 -338 950 l-335 936 -177 0 c-97 0 -179 -3
-182 -8z m337 -808 c81 -232 147 -426 147 -433 0 -8 -83 -11 -305 -11 -242 0
-305 3 -305 13 0 7 68 204 150 437 83 233 150 426 150 429 0 26 38 -75 163
-435z"/>
<path d="M11120 6230 l0 -950 155 0 155 0 2 709 3 708 468 -708 469 -709 154
0 154 0 0 950 0 950 -155 0 -155 0 -2 -707 -3 -707 -55 85 c-30 46 -240 364
-467 707 l-413 622 -155 0 -155 0 0 -950z"/>
<path d="M15200 6230 l0 -950 523 2 522 3 3 123 3 122 -371 0 -370 0 0 295 0
295 325 0 325 0 0 125 0 125 -325 0 -325 0 0 280 0 280 370 0 370 0 0 125 0
125 -525 0 -525 0 0 -950z"/>
<path d="M16630 6231 l0 -951 155 0 155 0 0 380 0 381 122 -3 123 -3 215 -375
216 -375 182 -3 c100 -1 182 0 182 3 0 3 -104 179 -231 391 -127 212 -228 388
-225 391 3 3 35 16 71 28 169 59 294 196 340 372 19 73 19 222 0 293 -51 194
-199 331 -422 392 -72 20 -107 22 -480 26 l-403 4 0 -951z m755 688 c114 -21
185 -73 229 -169 16 -35 21 -66 21 -140 0 -84 -3 -102 -28 -152 -37 -75 -94
-123 -175 -148 -55 -17 -93 -20 -278 -20 l-214 0 0 320 0 320 193 0 c106 0
220 -5 252 -11z"/>
<path d="M4660 3983 l0 -828 642 -370 c352 -203 663 -382 690 -398 l48 -27 0
1225 0 1225 -690 0 -690 0 0 -827z"/>
<path d="M6430 3462 l0 -1347 1789 -1033 1790 -1033 34 18 c187 99 1345 779
1338 786 -5 5 -809 471 -1787 1035 l-1779 1027 -3 948 -2 947 -690 0 -690 0 0
-1348z"/>
<path d="M11175 4359 c-429 -247 -783 -453 -787 -457 -4 -4 303 -187 682 -405
681 -394 689 -398 717 -384 62 33 2909 1679 2917 1688 6 5 -510 9 -1370 9
l-1379 0 -780 -451z"/>
<path d="M8182 3928 l3 -802 1788 -1032 1788 -1032 172 99 c95 55 899 519
1787 1032 l1615 932 3 802 2 802 -82 -48 c-46 -27 -841 -486 -1768 -1021 -927
-534 -1695 -978 -1706 -985 -20 -13 -138 54 -1555 872 -844 487 -1650 952
-1792 1034 l-257 148 2 -801z"/>
</g>
</svg>
